PathFileType	4	(X/Y/Z)	./resultDataOpenSim/trcMotMarkerGrf/sub06/qtm-02-03.trc
DataRate	CameraRate	NumFrames	NumMarkers	Units	OrigDataRate	OrigDataStartFrame	OrigNumFrames
250.000000	250.000000	8	24	m	250.000000	388	516
Frame#	Time	L.Toe.Tip			R.Toe.Tip			L.Ankle.Lat			R.Ankle.Lat			L.Ankle.Med			R.Ankle.Med			L.Heel			R.Heel			L.Knee.Lat			R.Knee.Lat			L.Knee.Med			R.Knee.Med			L.Thigh.Upper			R.Thigh.Upper			L.ASIS			R.ASIS			V.Sacral			L.Acromium			R.Acromium			C7			L.Elbow			R.Elbow			L.Wrist.Lat			R.Wrist.Lat
		X1	Y1	Z1	X2	Y2	Z2	X3	Y3	Z3	X4	Y4	Z4	X5	Y5	Z5	X6	Y6	Z6	X7	Y7	Z7	X8	Y8	Z8	X9	Y9	Z9	X10	Y10	Z10	X11	Y11	Z11	X12	Y12	Z12	X13	Y13	Z13	X14	Y14	Z14	X15	Y15	Z15	X16	Y16	Z16	X17	Y17	Z17	X18	Y18	Z18	X19	Y19	Z19	X20	Y20	Z20	X21	Y21	Z21	X22	Y22	Z22	X23	Y23	Z23	X24	Y24	Z24

388	1.548	1.5723954	0.13248714	-0.044839168	0.8537996	0.034763583	0.10471843	1.4461243	0.10571606	-0.061314474	0.73458284	0.096690233	0.13302088	1.4433297	0.12294799	0.021342595	0.76222271	0.11553752	0.047757189	1.39769	0.045193313	-0.01162443	0.67692411	0.097877025	0.073820055	1.3190046	0.45376534	-0.067775367	0.94876525	0.42970256	0.16507335	1.3021779	0.44081234	0.055352641	0.93060641	0.42985718	0.033713026	1.1339469	0.79344078	-0.12105593	1.0445224	0.77731777	0.21331121	1.1906326	0.84023867	-0.062644149	1.1586859	0.83036919	0.18373642	0.98765888	0.90284442	0.039443477	1.0837451	1.3160495	-0.1316119	1.1022391	1.3087629	0.23005056	1.0137463	1.3460064	0.054192099	0.96483436	1.0264557	-0.18102613	1.1622205	0.99778939	0.32645884	1.0338486	0.7985954	-0.22385453	1.4055132	1.0068891	0.26619362
389	1.552	1.5779025	0.12984939	-0.042504107	0.85404231	0.034806092	0.10480423	1.4516394	0.10356172	-0.05949844	0.73620125	0.098506547	0.13393127	1.4485186	0.12109428	0.023099423	0.76371351	0.11713545	0.048676218	1.4027425	0.043316285	-0.0099118195	0.67839775	0.10079404	0.07491117	1.3265199	0.45292398	-0.067148924	0.9547304	0.42882961	0.16540146	1.3092832	0.44057109	0.055856209	0.93678217	0.42895765	0.034073132	1.1416334	0.79262297	-0.12147068	1.0514338	0.7761953	0.21291823	1.1981963	0.83920183	-0.062709984	1.1662484	0.82899975	0.18379662	0.99498665	0.90159907	0.038816851	1.090751	1.3145034	-0.13237056	1.1086024	1.3077158	0.22938971	1.0203505	1.3446767	0.053320468	0.97173288	1.024988	-0.18069928	1.1693711	0.99701912	0.32626953	1.0391851	0.79687239	-0.22414928	1.4123515	1.006791	0.26517987
390	1.556	1.5828651	0.12673403	-0.040098886	0.85431304	0.034849171	0.10490106	1.4565928	0.10115652	-0.057667779	0.73791241	0.10039141	0.13484878	1.4532121	0.11889751	0.024850521	0.76541518	0.11879719	0.049600241	1.4070861	0.041319198	-0.0084262811	0.68004058	0.10385048	0.076034819	1.3340415	0.45209631	-0.066540437	0.96074633	0.42791389	0.16579282	1.316084	0.44024033	0.056292934	0.94311544	0.42803002	0.034438278	1.1493238	0.79185512	-0.12191987	1.05836	0.77515757	0.21251979	1.205811	0.83819331	-0.062795523	1.1737681	0.82769299	0.18383262	1.0024332	0.90037016	0.038407736	1.0977648	1.3130176	-0.13313255	1.1150194	1.3067339	0.22868202	1.0269864	1.3433622	0.052429345	0.97873995	1.0235647	-0.18036475	1.1764388	0.99628963	0.32605537	1.0446891	0.79519401	-0.22443832	1.419094	1.0065612	0.26420055
391	1.56	1.5872974	0.12316844	-0.037669411	0.85460583	0.034881209	0.10502308	1.4610067	0.09852307	-0.055836724	0.73965621	0.10232959	0.1357624	1.4574086	0.11643316	0.026589412	0.76734138	0.12051175	0.05051771	1.4107825	0.039186367	-0.0070009243	0.68186901	0.10704092	0.077175848	1.3415489	0.45131331	-0.065954375	0.96685019	0.42695792	0.16624433	1.322979	0.43989403	0.056673756	0.94961265	0.42706717	0.034820126	1.1570353	0.7911321	-0.12238313	1.0653516	0.77414542	0.21201904	1.2134799	0.83721944	-0.062904919	1.1812026	0.82645492	0.18376762	1.0100746	0.89914145	0.038343601	1.1047845	1.3115927	-0.1339042	1.1214974	1.3058136	0.22793132	1.0336544	1.342063	0.051519101	0.98586414	1.0221967	-0.18002132	1.1833942	0.99557717	0.32579896	1.0503721	0.7935694	-0.22472349	1.4257376	1.006205	0.26325557
392	1.564	1.5912132	0.11919953	-0.035257228	0.85491558	0.034894448	0.10517508	1.4649093	0.095678574	-0.054027819	0.7414275	0.10431364	0.13667355	1.4611256	0.1137595	0.028302625	0.76946331	0.12228726	0.051453271	1.4138776	0.036904443	-0.0055561219	0.68389883	0.11035741	0.078317502	1.3490168	0.45058885	-0.065397525	0.97321291	0.42599992	0.16671093	1.3304791	0.43961549	0.057012437	0.95629719	0.42606351	0.035241271	1.1647901	0.79045081	-0.12283166	1.0725564	0.77307669	0.2114286	1.2212092	0.83629041	-0.063033487	1.1886042	0.82526879	0.18361315	1.0178824	0.89792289	0.038554529	1.1118085	1.3102241	-0.1346853	1.1280117	1.3049398	0.22715818	1.0403514	1.3407769	0.050592867	0.99310902	1.0208955	-0.17967052	1.190203	0.99485658	0.32549113	1.0562455	0.79200379	-0.22500836	1.4322776	1.0057277	0.26234356
393	1.568	1.5946291	0.11488337	-0.03288393	0.85524751	0.03489165	0.10534978	1.4683301	0.092636528	-0.052259001	0.74332173	0.10637091	0.1376101	1.464394	0.11090761	0.029969627	0.77175633	0.12413564	0.052440116	1.4163835	0.034483596	-0.0041358748	0.686147	0.11380151	0.07944937	1.3564167	0.44991756	-0.064873307	0.9800499	0.42509154	0.16713125	1.3385773	0.43940797	0.057312691	0.96319389	0.42502059	0.035729135	1.1726113	0.78980908	-0.12324193	1.0800641	0.77191706	0.21085567	1.2290078	0.83541141	-0.063171606	1.1960305	0.8241182	0.18341711	1.0256906	0.89674903	0.038693994	1.1188392	1.3089072	-0.13547417	1.1345269	1.3040961	0.22638455	1.0470766	1.339503	0.04965335	1.000454	1.0196528	-0.17934203	1.1968622	0.99412485	0.32513779	1.06231	0.79049666	-0.22529154	1.4387132	1.0051267	0.26146655
394	1.572	1.5975701	0.11027283	-0.03054196	0.85562005	0.034879296	0.10553819	1.4712936	0.089410307	-0.050538277	0.74547103	0.10854661	0.13861201	1.4672305	0.10788256	0.031576892	0.77423326	0.1260573	0.053490293	1.4182817	0.031969066	-0.0028277154	0.68863156	0.11738829	0.080567952	1.3637185	0.44928613	-0.064372548	0.98735893	0.42423351	0.16751118	1.3467172	0.43918897	0.057566565	0.97030844	0.42394326	0.036300338	1.1805173	0.78919459	-0.12359749	1.0876782	0.77073302	0.21047792	1.2368834	0.83458152	-0.063316651	1.2035093	0.8229999	0.18321263	1.0333361	0.89564343	0.038433969	1.1258859	1.3076383	-0.13627277	1.1410309	1.3032745	0.22561242	1.0538281	1.3382442	0.048699325	1.0078591	1.0184276	-0.17909305	1.2033887	0.99339308	0.32475177	1.0685541	0.78903831	-0.2255635	1.4450491	1.0044004	0.26063006
395	1.576	1.6000736	0.10540165	-0.02819336	0.85606059	0.034861938	0.10575389	1.4738165	0.086022102	-0.048880588	0.74792397	0.11085989	0.13967643	1.4696278	0.10466364	0.033134747	0.77693369	0.12804484	0.054594585	1.4195512	0.02946536	-0.0016808965	0.69137518	0.12113178	0.081669383	1.3708988	0.44868101	-0.063865756	0.99484405	0.42334802	0.16795746	1.3545006	0.43888177	0.057772567	0.97763273	0.42282516	0.036957942	1.1885192	0.78858667	-0.12388361	1.0946832	0.76971974	0.21051892	1.2448414	0.83379854	-0.063473274	1.2110515	0.82191893	0.18301033	1.0408194	0.89459347	0.037787084	1.1329578	1.3064143	-0.1370819	1.1475372	1.3024738	0.2248263	1.0605898	1.3370052	0.047723657	1.0153075	1.0171909	-0.1789459	1.2097883	0.99266661	0.32434665	1.0749682	0.787615	-0.22581733	1.4512905	1.0035555	0.25983879
